<svg xmlns="http://www.w3.org/2000/svg" viewBox="0 0 1024 1024" width="1024" height="1024">
  <g transform="translate(237, 237) scale(5.5)">
    <g stroke="#803D63" stroke-width="6" stroke-linecap="round" stroke-linejoin="round" fill="none">
      <path d="M 28 42 L 28 24 C 28 14 38 10 50 10 C 62 10 72 14 72 24 L 72 42" />
      <path d="M 28 58 L 28 76 C 28 86 38 90 50 90 C 62 90 72 86 72 76 L 72 58" />
      <path d="M 28 34 C 28 38 34 42 40 42" />
      <path d="M 72 34 C 72 38 66 42 60 42" />
      <path d="M 28 66 C 28 62 34 58 40 58" />
      <path d="M 72 66 C 72 62 66 58 60 58" />
    </g>
    <g fill="#803D63">
      <rect x="36" y="25" width="28" height="7" rx="3.5" />
      <rect x="45.5" y="32" width="9" height="36" rx="4.5" />
      <rect x="36" y="68" width="28" height="7" rx="3.5" />
    </g>
  </g>
</svg>
